<svg version="1.1" id="Layer_1" xmlns="http://www.w3.org/2000/svg" xmlns:xlink="http://www.w3.org/1999/xlink" x="0px" y="0px"
	 width="100%" viewBox="0 0 830 134" enable-background="new 0 0 830 134" xml:space="preserve">
<path fill="#255898" opacity="1.000000" stroke="none" 
	d="
M798.000000,135.000000 
	C532.068848,135.000000 266.637665,135.000000 1.103258,135.000000 
	C1.103258,90.413963 1.103258,45.827614 1.103258,1.120630 
	C277.666626,1.120630 554.333313,1.120630 830.995667,1.120630 
	C830.995667,45.695606 830.995667,90.347801 830.993530,135.000000 
	C820.160889,135.000000 809.330444,135.000000 798.000000,135.000000 
M91.969559,41.419682 
	C89.205620,41.050137 87.401512,41.980427 85.950233,44.600582 
	C82.081444,51.585281 77.882423,58.387733 73.781342,65.242676 
	C72.569534,67.268188 71.246750,69.227287 69.717407,71.619484 
	C63.892063,62.097755 58.557755,53.268883 53.072495,44.534813 
	C52.278530,43.270599 50.821243,41.678986 49.566555,41.581463 
	C44.998661,41.226421 40.386467,41.441265 35.835594,41.441265 
	C35.835594,60.891735 35.835594,79.592392 35.835594,98.284561 
	C41.746025,98.284561 47.189503,98.284561 53.139854,98.284561 
	C53.139854,90.467812 53.139854,82.938393 53.139854,75.408966 
	C57.222626,80.375870 60.405502,85.572945 63.703682,90.695786 
	C66.279762,94.697029 73.089920,94.569977 75.576401,90.484131 
	C78.812668,85.166229 81.949471,79.787804 85.129082,74.435425 
	C85.534264,74.522438 85.939438,74.609459 86.344620,74.696472 
	C86.344620,82.533310 86.344620,90.370148 86.344620,98.147888 
	C92.648338,98.147888 98.190742,98.147888 103.597214,98.147888 
	C103.597214,79.124344 103.597214,60.535652 103.597214,41.419495 
	C99.786263,41.419495 96.319786,41.419495 91.969559,41.419682 
M550.440369,51.047977 
	C545.182861,41.332390 536.913574,39.593872 527.069092,42.092087 
	C527.069092,60.907028 527.069092,79.611214 527.069092,98.278099 
	C533.271057,98.278099 539.051147,98.278099 545.355164,98.278099 
	C545.355164,90.102570 545.355164,82.203590 545.355164,72.984337 
	C547.300415,75.146614 548.380859,76.280464 549.386719,77.476990 
	C554.529846,83.595146 559.620544,89.757843 564.815369,95.831589 
	C565.735596,96.907455 567.018616,98.329956 568.207642,98.403564 
	C572.972534,98.698532 577.766479,98.525444 582.725891,98.525444 
	C582.725891,79.310631 582.725891,60.705456 582.725891,41.764503 
	C576.502380,41.764503 570.440674,41.764503 563.789429,41.764503 
	C563.789429,50.058994 563.789429,58.057236 563.789429,66.992149 
	C559.013367,61.283852 554.958008,56.436882 550.440369,51.047977 
M471.485809,83.027184 
	C475.120605,87.363960 478.702545,91.747017 482.427765,96.004669 
	C483.347656,97.056000 484.693878,98.341560 485.912109,98.416687 
	C490.516449,98.700645 495.148743,98.530838 499.850098,98.530838 
	C499.850098,79.276810 499.850098,60.568611 499.850098,41.839455 
	C493.621490,41.839455 487.744385,41.839455 481.236084,41.839455 
	C481.236084,50.061153 481.236084,57.885632 481.236084,66.984619 
	C474.261719,58.669697 468.237091,51.403847 462.090576,44.242584 
	C461.089417,43.076145 459.599396,41.677662 458.249542,41.580700 
	C453.652161,41.250462 449.016418,41.454365 444.308411,41.454365 
	C444.308411,60.713234 444.308411,79.422478 444.308411,98.271187 
	C450.533020,98.271187 456.451965,98.271187 463.093323,98.271187 
	C463.093323,90.052498 463.093323,82.113762 463.093323,73.063828 
	C466.315033,76.893700 468.668060,79.690880 471.485809,83.027184 
M259.880524,82.175018 
	C266.954956,63.274494 258.414764,45.671898 239.085205,42.691338 
	C227.121338,40.846550 214.641312,42.349236 202.280243,42.349236 
	C202.280243,60.704899 202.280243,79.410172 202.280243,97.856445 
	C214.504425,97.856445 226.499268,98.590813 238.354919,97.621872 
	C247.679596,96.859787 255.143967,91.613411 259.880524,82.175018 
M609.384094,42.120937 
	C609.384094,60.727245 609.384094,79.333557 609.384094,98.262054 
	C625.033325,98.262054 640.582581,98.262054 656.357910,98.262054 
	C656.357910,93.394951 656.357910,88.843842 656.357910,83.809036 
	C646.781738,83.809036 637.533142,83.809036 628.340942,83.809036 
	C628.340942,81.226212 628.340942,79.134666 628.340942,76.469864 
	C636.347107,76.469864 644.082458,76.469864 651.881226,76.469864 
	C651.881226,71.625534 651.881226,67.362167 651.881226,62.564339 
	C643.891174,62.564339 636.152344,62.564339 628.376343,62.564339 
	C628.376343,60.123322 628.376343,58.224400 628.376343,55.983719 
	C637.462097,55.983719 646.238464,55.983719 655.277466,55.983719 
	C655.277466,51.080753 655.277466,46.526615 655.277466,41.622753 
	C640.016418,41.622753 625.081482,41.622753 609.384094,42.120937 
M166.455414,56.010399 
	C169.606613,56.010399 172.757828,56.010399 176.206131,56.010399 
	C176.206131,51.143642 176.206131,46.575668 176.206131,41.785728 
	C160.724976,41.785728 145.525543,41.785728 130.250366,41.785728 
	C130.250366,60.758789 130.250366,79.363998 130.250366,98.245453 
	C145.997528,98.245453 161.539429,98.245453 177.252838,98.245453 
	C177.252838,93.352661 177.252838,88.801598 177.252838,83.767059 
	C167.654572,83.767059 158.409744,83.767059 149.304718,83.767059 
	C149.304718,81.172295 149.304718,79.070496 149.304718,76.426254 
	C157.319626,76.426254 165.061768,76.426254 172.834305,76.426254 
	C172.834305,71.613907 172.834305,67.353035 172.834305,62.598457 
	C164.839981,62.598457 157.102493,62.598457 149.299835,62.598457 
	C149.299835,60.186501 149.299835,58.275028 149.299835,56.010399 
	C154.872040,56.010399 160.170074,56.010399 166.455414,56.010399 
M322.148499,56.887501 
	C324.606903,58.544685 327.065308,60.201866 329.764923,62.021645 
	C333.513550,58.627014 337.393097,55.113796 341.245728,51.624950 
	C329.686462,37.523941 306.055847,36.274483 292.927979,48.632641 
	C280.774536,60.073498 281.028137,80.808197 293.457520,91.927330 
	C306.770660,103.837074 330.654083,102.176933 341.214569,88.283577 
	C339.304169,86.551064 337.367065,84.773041 335.406006,83.021835 
	C333.451324,81.276321 331.472626,79.557693 329.549194,77.866608 
	C327.563171,79.444038 325.990570,80.962593 324.174530,82.088554 
	C316.611755,86.777565 306.862762,83.727997 304.382233,75.719688 
	C302.693085,70.266281 302.857513,64.743576 306.804840,60.123035 
	C310.739349,55.517460 315.878235,55.048504 322.148499,56.887501 
M725.965576,43.336090 
	C717.211182,39.576393 708.271667,39.016319 699.194031,41.961716 
	C684.771729,46.641270 676.889282,59.726208 679.117493,75.143562 
	C681.125793,89.040039 693.196777,99.244797 708.731262,99.825462 
	C719.445068,100.225937 728.942932,97.370018 736.144653,88.408882 
	C731.994141,84.702148 728.178040,81.294113 724.409729,77.928780 
	C714.990784,85.347504 706.953674,86.069618 701.667175,80.167046 
	C696.958374,74.909508 696.963013,65.164902 701.677002,59.892220 
	C706.991699,53.947498 714.827209,54.632271 724.404785,62.066971 
	C728.256836,58.626686 732.153748,55.146294 736.695129,51.090389 
	C732.973145,48.375275 729.791321,46.054142 725.965576,43.336090 
M794.461853,41.419682 
	C781.044434,41.419682 767.627014,41.419682 754.195923,41.419682 
	C754.195923,46.754776 754.195923,51.350037 754.195923,56.340767 
	C758.430908,56.340767 762.415710,56.501575 766.380676,56.290142 
	C769.581665,56.119446 770.809753,57.169178 770.722534,60.508022 
	C770.522644,68.162567 770.660767,75.825951 770.661316,83.485741 
	C770.661682,88.422462 770.661377,93.359184 770.661377,98.211105 
	C777.478760,98.211105 783.564697,98.211105 790.125366,98.211105 
	C790.125366,84.102646 790.125366,70.357185 790.125366,56.096382 
	C795.858582,56.096382 801.109253,56.096382 806.235352,56.096382 
	C806.235352,50.985218 806.235352,46.413601 806.235352,41.419727 
	C802.381287,41.419727 798.913391,41.419727 794.461853,41.419682 
M375.213409,87.877823 
	C376.634766,87.613388 378.056122,87.348953 380.011932,86.985092 
	C379.335571,92.702110 381.088196,96.804527 386.676361,98.440834 
	C395.370392,100.986610 404.122223,101.207306 412.686523,98.228645 
	C414.967590,97.435295 417.630707,95.452454 418.524323,93.341049 
	C423.198975,82.296089 418.346771,74.223885 406.439087,72.608757 
	C403.116699,72.158119 399.755737,71.992020 396.412476,71.695396 
	C396.097015,71.148895 395.781525,70.602394 395.466034,70.055901 
	C397.690430,68.311974 400.142334,66.789574 402.096649,64.782646 
	C408.014343,58.705750 408.060333,50.185532 402.427246,44.739498 
	C396.967499,39.460987 388.658295,39.687920 382.737579,45.467457 
	C376.545563,51.511806 370.537659,57.744366 364.381500,63.826023 
	C359.910339,68.243057 358.327118,73.449074 360.604767,79.302177 
	C362.976318,85.396599 367.797668,88.212593 375.213409,87.877823 
z"/>
<path fill="#F9FAFC" opacity="1.000000" stroke="none" 
	d="
M92.411438,41.419586 
	C96.319786,41.419495 99.786263,41.419495 103.597214,41.419495 
	C103.597214,60.535652 103.597214,79.124344 103.597214,98.147888 
	C98.190742,98.147888 92.648338,98.147888 86.344620,98.147888 
	C86.344620,90.370148 86.344620,82.533310 86.344620,74.696472 
	C85.939438,74.609459 85.534264,74.522438 85.129082,74.435425 
	C81.949471,79.787804 78.812668,85.166229 75.576401,90.484131 
	C73.089920,94.569977 66.279762,94.697029 63.703682,90.695786 
	C60.405502,85.572945 57.222626,80.375870 53.139854,75.408966 
	C53.139854,82.938393 53.139854,90.467812 53.139854,98.284561 
	C47.189503,98.284561 41.746025,98.284561 35.835594,98.284561 
	C35.835594,79.592392 35.835594,60.891735 35.835594,41.441265 
	C40.386467,41.441265 44.998661,41.226421 49.566555,41.581463 
	C50.821243,41.678986 52.278530,43.270599 53.072495,44.534813 
	C58.557755,53.268883 63.892063,62.097755 69.717407,71.619484 
	C71.246750,69.227287 72.569534,67.268188 73.781342,65.242676 
	C77.882423,58.387733 82.081444,51.585281 85.950233,44.600582 
	C87.401512,41.980427 89.205620,41.050137 92.411438,41.419586 
z"/>
<path fill="#FBFCFD" opacity="1.000000" stroke="none" 
	d="
M550.671509,51.318947 
	C554.958008,56.436882 559.013367,61.283852 563.789429,66.992149 
	C563.789429,58.057236 563.789429,50.058994 563.789429,41.764503 
	C570.440674,41.764503 576.502380,41.764503 582.725891,41.764503 
	C582.725891,60.705456 582.725891,79.310631 582.725891,98.525444 
	C577.766479,98.525444 572.972534,98.698532 568.207642,98.403564 
	C567.018616,98.329956 565.735596,96.907455 564.815369,95.831589 
	C559.620544,89.757843 554.529846,83.595146 549.386719,77.476990 
	C548.380859,76.280464 547.300415,75.146614 545.355164,72.984337 
	C545.355164,82.203590 545.355164,90.102570 545.355164,98.278099 
	C539.051147,98.278099 533.271057,98.278099 527.069092,98.278099 
	C527.069092,79.611214 527.069092,60.907028 527.069092,42.092087 
	C536.913574,39.593872 545.182861,41.332390 550.671509,51.318947 
z"/>
<path fill="#FBFCFD" opacity="1.000000" stroke="none" 
	d="
M471.253418,82.757629 
	C468.668060,79.690880 466.315033,76.893700 463.093323,73.063828 
	C463.093323,82.113762 463.093323,90.052498 463.093323,98.271187 
	C456.451965,98.271187 450.533020,98.271187 444.308411,98.271187 
	C444.308411,79.422478 444.308411,60.713234 444.308411,41.454365 
	C449.016418,41.454365 453.652161,41.250462 458.249542,41.580700 
	C459.599396,41.677662 461.089417,43.076145 462.090576,44.242584 
	C468.237091,51.403847 474.261719,58.669697 481.236084,66.984619 
	C481.236084,57.885632 481.236084,50.061153 481.236084,41.839455 
	C487.744385,41.839455 493.621490,41.839455 499.850098,41.839455 
	C499.850098,60.568611 499.850098,79.276810 499.850098,98.530838 
	C495.148743,98.530838 490.516449,98.700645 485.912109,98.416687 
	C484.693878,98.341560 483.347656,97.056000 482.427765,96.004669 
	C478.702545,91.747017 475.120605,87.363960 471.253418,82.757629 
z"/>
<path fill="#FBFCFD" opacity="1.000000" stroke="none" 
	d="
M259.708038,82.516373 
	C255.143967,91.613411 247.679596,96.859787 238.354919,97.621872 
	C226.499268,98.590813 214.504425,97.856445 202.280243,97.856445 
	C202.280243,79.410172 202.280243,60.704899 202.280243,42.349236 
	C214.641312,42.349236 227.121338,40.846550 239.085205,42.691338 
	C258.414764,45.671898 266.954956,63.274494 259.708038,82.516373 
M221.150620,72.461746 
	C221.150620,76.036285 221.150620,79.610832 221.150620,83.501144 
	C228.954727,83.395119 236.454468,85.033798 241.091934,77.438736 
	C243.979019,72.710381 243.600983,65.588867 240.295593,61.413567 
	C235.232529,55.017994 228.243805,56.658218 221.150620,56.459763 
	C221.150620,61.899792 221.150620,66.688049 221.150620,72.461746 
z"/>
<path fill="#F8F9FC" opacity="1.000000" stroke="none" 
	d="
M609.765320,41.871845 
	C625.081482,41.622753 640.016418,41.622753 655.277466,41.622753 
	C655.277466,46.526615 655.277466,51.080753 655.277466,55.983719 
	C646.238464,55.983719 637.462097,55.983719 628.376343,55.983719 
	C628.376343,58.224400 628.376343,60.123322 628.376343,62.564339 
	C636.152344,62.564339 643.891174,62.564339 651.881226,62.564339 
	C651.881226,67.362167 651.881226,71.625534 651.881226,76.469864 
	C644.082458,76.469864 636.347107,76.469864 628.340942,76.469864 
	C628.340942,79.134666 628.340942,81.226212 628.340942,83.809036 
	C637.533142,83.809036 646.781738,83.809036 656.357910,83.809036 
	C656.357910,88.843842 656.357910,93.394951 656.357910,98.262054 
	C640.582581,98.262054 625.033325,98.262054 609.384094,98.262054 
	C609.384094,79.333557 609.384094,60.727245 609.765320,41.871845 
z"/>
<path fill="#F9FAFC" opacity="1.000000" stroke="none" 
	d="
M165.961761,56.010399 
	C160.170074,56.010399 154.872040,56.010399 149.299835,56.010399 
	C149.299835,58.275028 149.299835,60.186501 149.299835,62.598457 
	C157.102493,62.598457 164.839981,62.598457 172.834305,62.598457 
	C172.834305,67.353035 172.834305,71.613907 172.834305,76.426254 
	C165.061768,76.426254 157.319626,76.426254 149.304718,76.426254 
	C149.304718,79.070496 149.304718,81.172295 149.304718,83.767059 
	C158.409744,83.767059 167.654572,83.767059 177.252838,83.767059 
	C177.252838,88.801598 177.252838,93.352661 177.252838,98.245453 
	C161.539429,98.245453 145.997528,98.245453 130.250366,98.245453 
	C130.250366,79.363998 130.250366,60.758789 130.250366,41.785728 
	C145.525543,41.785728 160.724976,41.785728 176.206131,41.785728 
	C176.206131,46.575668 176.206131,51.143642 176.206131,56.010399 
	C172.757828,56.010399 169.606613,56.010399 165.961761,56.010399 
z"/>
<path fill="#FBFCFD" opacity="1.000000" stroke="none" 
	d="
M321.776917,56.733181 
	C315.878235,55.048504 310.739349,55.517460 306.804840,60.123035 
	C302.857513,64.743576 302.693085,70.266281 304.382233,75.719688 
	C306.862762,83.727997 316.611755,86.777565 324.174530,82.088554 
	C325.990570,80.962593 327.563171,79.444038 329.549194,77.866608 
	C331.472626,79.557693 333.451324,81.276321 335.406006,83.021835 
	C337.367065,84.773041 339.304169,86.551064 341.214569,88.283577 
	C330.654083,102.176933 306.770660,103.837074 293.457520,91.927330 
	C281.028137,80.808197 280.774536,60.073498 292.927979,48.632641 
	C306.055847,36.274483 329.686462,37.523941 341.245728,51.624950 
	C337.393097,55.113796 333.513550,58.627014 329.764923,62.021645 
	C327.065308,60.201866 324.606903,58.544685 321.776917,56.733181 
z"/>
<path fill="#FCFCFD" opacity="1.000000" stroke="none" 
	d="
M726.287476,43.534546 
	C729.791321,46.054142 732.973145,48.375275 736.695129,51.090389 
	C732.153748,55.146294 728.256836,58.626686 724.404785,62.066971 
	C714.827209,54.632271 706.991699,53.947498 701.677002,59.892220 
	C696.963013,65.164902 696.958374,74.909508 701.667175,80.167046 
	C706.953674,86.069618 714.990784,85.347504 724.409729,77.928780 
	C728.178040,81.294113 731.994141,84.702148 736.144653,88.408882 
	C728.942932,97.370018 719.445068,100.225937 708.731262,99.825462 
	C693.196777,99.244797 681.125793,89.040039 679.117493,75.143562 
	C676.889282,59.726208 684.771729,46.641270 699.194031,41.961716 
	C708.271667,39.016319 717.211182,39.576393 726.287476,43.534546 
z"/>
<path fill="#F9FAFC" opacity="1.000000" stroke="none" 
	d="
M794.953735,41.419704 
	C798.913391,41.419727 802.381287,41.419727 806.235352,41.419727 
	C806.235352,46.413601 806.235352,50.985218 806.235352,56.096382 
	C801.109253,56.096382 795.858582,56.096382 790.125366,56.096382 
	C790.125366,70.357185 790.125366,84.102646 790.125366,98.211105 
	C783.564697,98.211105 777.478760,98.211105 770.661377,98.211105 
	C770.661377,93.359184 770.661682,88.422462 770.661316,83.485741 
	C770.660767,75.825951 770.522644,68.162567 770.722534,60.508022 
	C770.809753,57.169178 769.581665,56.119446 766.380676,56.290142 
	C762.415710,56.501575 758.430908,56.340767 754.195923,56.340767 
	C754.195923,51.350037 754.195923,46.754776 754.195923,41.419682 
	C767.627014,41.419682 781.044434,41.419682 794.953735,41.419704 
z"/>
<path fill="#ECD04D" opacity="1.000000" stroke="none" 
	d="
M374.786499,87.918732 
	C367.797668,88.212593 362.976318,85.396599 360.604767,79.302177 
	C358.327118,73.449074 359.910339,68.243057 364.381500,63.826023 
	C370.537659,57.744366 376.545563,51.511806 382.737579,45.467457 
	C388.658295,39.687920 396.967499,39.460987 402.427246,44.739498 
	C408.060333,50.185532 408.014343,58.705750 402.096649,64.782646 
	C400.142334,66.789574 397.690430,68.311974 395.466034,70.055901 
	C395.781525,70.602394 396.097015,71.148895 396.412476,71.695396 
	C399.755737,71.992020 403.116699,72.158119 406.439087,72.608757 
	C418.346771,74.223885 423.198975,82.296089 418.524323,93.341049 
	C417.630707,95.452454 414.967590,97.435295 412.686523,98.228645 
	C404.122223,101.207306 395.370392,100.986610 386.676361,98.440834 
	C381.088196,96.804527 379.335571,92.702110 380.011932,86.985092 
	C378.056122,87.348953 376.634766,87.613388 374.786499,87.918732 
M372.654297,81.264816 
	C379.216980,81.178093 381.248138,75.276306 385.090240,72.299057 
	C381.775757,68.667053 378.817657,65.425575 375.503632,61.794064 
	C373.105377,64.325485 371.019928,66.464577 369.003937,68.667236 
	C364.445557,73.647636 365.492889,78.170700 372.654297,81.264816 
M399.772888,52.938492 
	C397.622833,51.166828 395.532776,47.986172 393.311340,47.891628 
	C387.022766,47.623997 384.819183,53.627285 381.247742,56.623764 
	C384.524109,60.357681 387.333527,63.559410 390.493164,67.160263 
	C394.103821,62.426018 400.016663,60.291378 399.772888,52.938492 
M398.560150,89.397736 
	C394.686218,89.042870 390.812286,88.688004 386.826782,88.322914 
	C387.773224,92.905266 394.163574,94.928047 403.919220,93.524567 
	C407.001007,93.081223 411.714996,94.078743 412.391815,88.338264 
	C407.682007,88.727448 403.597137,89.064995 398.560150,89.397736 
M397.682343,82.943596 
	C401.806580,82.606430 405.930817,82.269264 410.055054,81.932098 
	C404.018219,77.719772 393.398560,77.917419 388.569489,81.656380 
	C391.654114,82.128723 394.218414,82.521378 397.682343,82.943596 
z"/>
<path fill="#2C5D9C" opacity="1.000000" stroke="none" 
	d="
M221.150620,71.969025 
	C221.150620,66.688049 221.150620,61.899792 221.150620,56.459763 
	C228.243805,56.658218 235.232529,55.017994 240.295593,61.413567 
	C243.600983,65.588867 243.979019,72.710381 241.091934,77.438736 
	C236.454468,85.033798 228.954727,83.395119 221.150620,83.501144 
	C221.150620,79.610832 221.150620,76.036285 221.150620,71.969025 
z"/>
<path fill="#325F93" opacity="1.000000" stroke="none" 
	d="
M372.254761,81.199394 
	C365.492889,78.170700 364.445557,73.647636 369.003937,68.667236 
	C371.019928,66.464577 373.105377,64.325485 375.503632,61.794064 
	C378.817657,65.425575 381.775757,68.667053 385.090240,72.299057 
	C381.248138,75.276306 379.216980,81.178093 372.254761,81.199394 
z"/>
<path fill="#305E94" opacity="1.000000" stroke="none" 
	d="
M399.846924,53.321823 
	C400.016663,60.291378 394.103821,62.426018 390.493164,67.160263 
	C387.333527,63.559410 384.524109,60.357681 381.247742,56.623764 
	C384.819183,53.627285 387.022766,47.623997 393.311340,47.891628 
	C395.532776,47.986172 397.622833,51.166828 399.846924,53.321823 
z"/>
<path fill="#486D8A" opacity="1.000000" stroke="none" 
	d="
M399.036194,89.400131 
	C403.597137,89.064995 407.682007,88.727448 412.391815,88.338264 
	C411.714996,94.078743 407.001007,93.081223 403.919220,93.524567 
	C394.163574,94.928047 387.773224,92.905266 386.826782,88.322914 
	C390.812286,88.688004 394.686218,89.042870 399.036194,89.400131 
z"/>
<path fill="#496D8A" opacity="1.000000" stroke="none" 
	d="
M397.232513,82.928818 
	C394.218414,82.521378 391.654114,82.128723 388.569489,81.656380 
	C393.398560,77.917419 404.018219,77.719772 410.055054,81.932098 
	C405.930817,82.269264 401.806580,82.606430 397.232513,82.928818 
z"/>
</svg>