<?xml version="1.0" standalone="no"?>
<!DOCTYPE svg PUBLIC "-//W3C//DTD SVG 20010904//EN"
 "http://www.w3.org/TR/2001/REC-SVG-20010904/DTD/svg10.dtd">
<svg version="1.0" xmlns="http://www.w3.org/2000/svg"
 width="1022.000000pt" height="322.000000pt" viewBox="0 0 1022.000000 322.000000"
 preserveAspectRatio="xMidYMid meet">

<g transform="translate(0.000000,322.000000) scale(0.100000,-0.100000)"
fill="#000000" stroke="none">
<path d="M0 1610 l0 -1610 5110 0 5110 0 0 1610 0 1610 -5110 0 -5110 0 0
-1610z m1721 760 c193 -64 343 -184 451 -362 75 -123 110 -256 109 -418 -1
-355 -232 -662 -581 -772 -65 -20 -95 -23 -230 -23 -143 0 -162 2 -242 28
-157 52 -318 168 -413 297 -163 222 -200 532 -93 787 96 232 296 410 530 472
109 29 113 30 248 26 109 -2 137 -7 221 -35z m5577 -323 c9 -7 12 -109 12
-448 0 -426 -1 -440 -20 -459 -20 -20 -93 -28 -116 -12 -6 4 -53 111 -105 238
l-94 232 -5 -230 c-4 -189 -8 -230 -20 -238 -22 -14 -114 -12 -128 2 -9 9 -12
123 -12 450 0 425 1 439 20 458 27 27 82 26 113 -2 16 -14 60 -108 118 -248
l94 -225 3 242 2 243 28 6 c15 3 31 7 37 8 16 4 59 -6 73 -17z m-4404 -9 c8
-13 59 -142 114 -288 55 -146 106 -278 112 -295 11 -29 17 -15 126 274 63 167
119 310 125 317 18 22 105 18 129 -6 19 -19 20 -33 20 -458 0 -327 -3 -441
-12 -450 -16 -16 -120 -16 -136 0 -9 9 -12 74 -13 228 l0 215 -77 -211 c-42
-116 -83 -218 -91 -227 -15 -19 -81 -23 -110 -7 -12 6 -46 86 -97 231 l-79
222 -3 -224 c-2 -163 -6 -225 -15 -231 -6 -4 -35 -8 -64 -8 -89 0 -84 -30 -81
472 3 500 -3 468 90 468 38 0 50 -4 62 -22z m1176 -4 c15 -38 12 -87 -6 -112
-14 -20 -23 -22 -110 -22 l-94 0 0 -120 0 -120 74 0 c84 0 86 -2 86 -80 0 -67
-16 -80 -96 -80 l-64 0 0 -115 0 -115 100 0 c112 0 120 -5 120 -75 0 -75 0
-75 -194 -75 -149 0 -175 2 -180 16 -3 9 -6 215 -6 458 0 330 3 445 12 454 8
8 63 12 180 12 l168 0 10 -26z m514 5 c75 -59 118 -231 117 -476 -1 -208 -36
-356 -100 -417 l-28 -27 -149 3 -149 3 -5 115 c-8 181 -6 794 3 808 6 9 47 12
146 12 125 0 141 -2 165 -21z m687 -14 c52 -36 86 -101 95 -178 6 -55 6 -57
-20 -67 -70 -26 -136 -1 -136 52 0 46 -25 68 -76 68 -34 0 -47 -5 -63 -26 -20
-25 -21 -39 -21 -280 0 -168 4 -261 11 -278 26 -55 133 -54 144 2 14 70 19 77
61 86 30 6 49 4 70 -6 26 -13 29 -18 27 -62 -3 -88 -49 -166 -117 -197 -60
-27 -157 -25 -221 5 -60 28 -87 56 -114 116 -19 42 -21 65 -21 330 0 279 1
286 24 336 43 91 125 136 243 131 61 -2 78 -7 114 -32z m567 22 c43 -16 91
-63 113 -112 17 -36 19 -71 19 -346 l0 -305 -26 -53 c-39 -77 -86 -105 -187
-110 -44 -2 -97 2 -117 8 -47 14 -115 86 -129 137 -14 51 -15 596 0 647 13 49
63 105 114 128 46 21 161 24 213 6z m421 -4 c12 -10 62 -115 116 -243 l94
-225 1 231 c0 165 3 233 12 242 16 16 120 16 136 0 9 -9 12 -123 12 -450 0
-428 0 -438 -21 -459 -16 -16 -30 -19 -72 -17 l-51 3 -103 250 -102 250 -1
-246 c0 -276 5 -259 -75 -259 -82 0 -75 -40 -75 454 0 498 -2 486 69 486 22 0
48 -8 60 -17z m1599 5 c7 -7 12 -36 12 -64 0 -76 -11 -84 -126 -84 l-94 0 0
-120 0 -120 74 0 74 0 12 -34 c14 -43 3 -103 -21 -116 -10 -6 -45 -10 -78 -10
l-61 0 0 -115 0 -115 104 0 c116 0 116 0 116 -75 0 -78 8 -75 -184 -75 -120 0
-176 4 -184 12 -17 17 -17 899 0 916 8 8 62 12 178 12 116 0 170 -4 178 -12z
m563 -11 c61 -32 98 -88 112 -170 13 -79 9 -87 -57 -94 -61 -7 -96 15 -96 59
0 46 -25 68 -76 68 -34 0 -47 -5 -63 -26 -20 -25 -21 -39 -21 -280 0 -169 4
-261 11 -278 16 -33 66 -50 105 -36 35 14 44 26 44 66 0 17 6 37 13 43 23 19
73 24 112 11 l37 -12 -6 -53 c-17 -144 -91 -214 -226 -215 -114 0 -210 64
-239 159 -7 25 -11 137 -11 317 0 273 1 280 24 330 40 86 120 133 227 134 50
0 76 -6 110 -23z m807 11 c16 -16 16 -113 0 -126 -7 -5 -57 -13 -110 -17 l-98
-7 0 -383 0 -384 -22 -7 c-35 -11 -107 -7 -123 6 -13 11 -15 71 -15 390 l0
378 -101 8 c-94 6 -101 8 -110 31 -12 31 -11 65 1 97 l10 26 278 0 c203 0 281
-3 290 -12z"/>
<path d="M1305 2354 c-96 -21 -237 -90 -317 -155 -194 -157 -298 -391 -285
-639 7 -127 25 -199 78 -305 131 -266 392 -426 694 -426 220 0 405 79 557 238
139 146 210 324 210 528 0 342 -205 627 -530 737 -74 25 -106 31 -212 34 -89
3 -145 -1 -195 -12z m295 -459 l0 -175 165 0 165 0 0 -120 0 -120 -165 0 -165
0 -2 -177 -3 -178 -122 -3 -123 -3 0 181 0 180 -170 0 -170 0 0 120 0 120 170
0 170 0 0 175 0 175 125 0 125 0 0 -175z"/>
<path d="M4438 1899 c-17 -9 -18 -35 -18 -309 0 -295 0 -299 21 -311 16 -8 27
-8 44 1 40 21 50 84 50 305 0 168 -3 208 -18 253 -10 29 -27 57 -37 62 -22 12
-21 12 -42 -1z"/>
<path d="M5688 1889 c-10 -5 -22 -26 -28 -47 -14 -52 -12 -468 3 -512 24 -70
106 -76 139 -9 16 29 18 65 18 265 0 238 -6 286 -40 304 -24 13 -70 12 -92 -1z"/>
</g>
</svg>
